<?xml version="1.0" encoding="UTF-8" standalone="no"?>
<svg width="200" height="400" viewBox="0 0 200 400" fill="none" xmlns="http://www.w3.org/2000/svg">
  <path d="M100 50 C 120 50, 140 65, 140 100 L 140 150 C 140 160, 130 170, 120 170 L 80 170 C 70 170, 60 160, 60 150 L 60 100 C 60 65, 80 50, 100 50 Z" fill="#e0e0e0" stroke="#808080" stroke-width="2"/>
  <path d="M80 170 L 70 350 L 90 350 L 100 200 L 110 350 L 130 350 L 120 170 Z" fill="#e0e0e0" stroke="#808080" stroke-width="2"/>
  <circle cx="100" cy="35" r="25" fill="#e0e0e0" stroke="#808080" stroke-width="2"/>
  <line x1="100" y1="170" x2="70" y2="250" stroke="#808080" stroke-width="2"/>
  <line x1="100" y1="170" x2="130" y2="250" stroke="#808080" stroke-width="2"/>
  <text x="100" y="380" text-anchor="middle" font-family="Arial" font-size="14" fill="#808080">Figurína</text>
</svg>